<svg width="221" height="209" viewBox="0 0 221 209" fill="none" xmlns="http://www.w3.org/2000/svg">
<g clip-path="url(#clip0_4_175)">
<path fill-rule="evenodd" clip-rule="evenodd" d="M56.1875 33.3012C54.8749 34.7938 54.486 35.5091 53.281 38.6448C52.6413 40.3094 51.5788 43.0803 50.9197 44.8023C50.2606 46.5244 49.3606 48.8726 48.9194 50.0206C48.4784 51.1686 47.5901 53.4937 46.9455 55.1874C46.301 56.8811 45.2603 59.6051 44.6327 61.2407C42.4883 66.8303 40.7747 71.3105 40.1023 73.0857C39.7326 74.0615 38.9718 76.034 38.4116 77.4689C37.8514 78.9038 36.867 81.4632 36.2243 83.1567C34.6335 87.3474 32.905 91.8625 31.6755 95.0386C31.1123 96.4935 30.3756 98.4191 30.0388 99.3176C28.11 104.461 25.9996 109.875 25.5126 110.93C24.8611 112.341 24.9395 112.885 26.0413 114.596C26.6654 115.565 28.2104 118.34 29.7176 121.2C30.1158 121.956 32.1187 125.664 34.169 129.442C36.219 133.219 38.5624 137.546 39.3764 139.056C40.1905 140.567 41.526 143.04 42.3441 144.551C43.1622 146.061 44.0576 147.725 44.3338 148.248C44.6099 148.771 45.9489 151.244 47.3089 153.743C49.9515 158.598 52.4246 163.181 53.238 164.731C53.8541 165.905 56.0524 169.943 57.8395 173.184C58.5765 174.52 59.5001 176.232 59.8916 176.987C61.5154 180.119 62.2893 181.311 62.8337 181.517C63.7277 181.856 64.3095 181.42 65.2907 179.675C65.7811 178.803 66.7427 177.122 67.4277 175.939C68.1127 174.756 69.3271 172.65 70.1264 171.259C70.9258 169.868 72.199 167.669 72.9561 166.371C73.713 165.074 74.6089 163.509 74.9467 162.894C75.2846 162.279 76.353 160.417 77.321 158.757C78.289 157.097 81.736 151.124 84.9809 145.485L90.8811 135.231L111.009 135.498C122.079 135.645 131.204 135.743 131.287 135.715C131.433 135.666 131.82 136.345 134.81 141.899C135.592 143.351 136.857 145.681 137.619 147.076C138.382 148.471 140.388 152.179 142.077 155.317C146.482 163.5 154.564 178.438 155.813 180.705C156.398 181.767 157.02 182.696 157.197 182.769C157.82 183.026 158.432 182.907 158.853 182.446C159.088 182.19 162.432 176.499 166.286 169.8C170.139 163.101 173.994 156.403 174.851 154.914C175.709 153.425 176.949 151.262 177.606 150.107C178.263 148.952 179.182 147.381 179.648 146.616C180.115 145.852 180.497 145.185 180.497 145.135C180.498 145.085 181.282 143.704 182.239 142.067C183.196 140.43 184.489 138.201 185.112 137.113C185.736 136.025 186.968 133.883 187.852 132.353C188.735 130.823 189.625 129.277 189.828 128.917C190.032 128.558 190.818 127.198 191.576 125.895C192.334 124.592 192.954 123.493 192.954 123.453C192.955 123.413 193.499 122.465 194.163 121.346C194.828 120.227 195.731 118.656 196.171 117.854C196.611 117.052 197.149 116.137 197.366 115.821C197.947 114.973 197.78 113.108 196.909 110.731C196.526 109.687 195.455 106.699 194.528 104.091C193.601 101.482 192.285 97.7826 191.604 95.8697C190.923 93.9567 189.694 90.4945 188.872 88.1758C188.05 85.8572 186.818 82.3949 186.134 80.4819C185.449 78.569 184.612 76.1976 184.273 75.2123C183.934 74.227 183.36 72.6145 182.997 71.6289C181.986 68.881 179.113 60.815 178.305 58.4543C177.908 57.2952 177.42 55.9198 177.22 55.3979C177.02 54.876 175.835 51.556 174.587 48.0201C170.421 36.2212 170.62 36.7154 169.534 35.4527C168.863 34.6726 168.389 34.301 168.058 34.2966C167.791 34.2931 167.571 34.3845 167.569 34.4999C167.568 34.6153 167.261 34.7056 166.888 34.7006C166.135 34.6906 165.783 35.0107 165.239 36.1997C165.042 36.6297 164.767 36.9802 164.627 36.9783C164.329 36.9744 162.852 38.4497 162.848 38.7555C162.846 38.8709 162.429 39.3766 161.92 39.8795C161.412 40.3823 160.994 40.892 160.992 41.0122C160.99 41.1324 160.297 41.9296 159.452 42.7838C158.608 43.6379 157.913 44.4484 157.908 44.5849C157.904 44.7212 157.716 44.8903 157.492 44.9606C157.268 45.0308 157.084 45.1905 157.082 45.3155C157.079 45.5536 156.257 46.5312 153.942 49.0505C153.18 49.8804 152.553 50.6774 152.55 50.8215C152.546 50.9658 152.427 51.0821 152.284 51.0802C152.142 51.0783 151.445 51.6657 150.737 52.3858C149.571 53.5703 149.467 53.7456 149.638 54.2306C149.742 54.5255 149.983 54.831 150.173 54.9095C150.571 55.0736 151.685 54.6419 151.689 54.3218C151.691 54.2037 152.71 53.0854 153.953 51.8367C155.197 50.588 156.215 49.4781 156.217 49.3705C156.22 49.1701 157.237 47.991 159.873 45.1315C160.694 44.2416 161.366 43.4218 161.368 43.3098C161.372 43.0187 163.085 41.3635 163.379 41.3674C163.514 41.3692 163.627 41.1892 163.63 40.9673C163.635 40.5805 164.734 39.2875 165.055 39.2917C165.14 39.2929 165.316 39.0592 165.447 38.7725C165.578 38.4858 165.824 38.253 165.994 38.2553C166.163 38.2575 166.304 38.1404 166.306 37.9951C166.31 37.6714 167.277 36.594 167.559 36.5977C167.978 36.6033 168.689 37.6881 169.184 39.0756C169.465 39.8629 170.365 42.4044 171.184 44.723C172.004 47.0416 173.234 50.5039 173.919 52.4169C174.603 54.3298 175.836 57.7921 176.66 60.1108C177.483 62.4295 178.803 66.1289 179.593 68.3318C180.383 70.5347 181.602 73.9495 182.301 75.9204C183 77.8913 184.163 81.1638 184.884 83.1927C185.606 85.2215 186.544 87.8774 186.969 89.0946C188.051 92.1917 192.084 103.538 194.162 109.331C194.723 110.896 195.192 112.318 195.204 112.491C195.223 112.77 190.923 112.761 157.986 112.416C122.311 112.042 120.729 112.042 120.332 112.403C120.105 112.61 119.859 113.013 119.786 113.298C119.645 113.847 119.537 113.623 123.274 120.556C124.307 122.474 125.817 125.279 126.629 126.79C127.442 128.3 128.333 129.919 128.61 130.385C128.887 130.852 129.349 131.732 129.637 132.341L130.161 133.447L111.576 133.147C95.2347 132.882 92.9675 132.807 92.8009 132.526C92.6579 132.284 93.8949 129.978 97.8276 123.152C100.696 118.172 103.101 113.878 103.172 113.61C103.255 113.291 103.162 112.924 102.904 112.557L102.509 111.993L65.3948 111.447C33.2924 110.974 28.2661 110.859 28.1726 110.596C28.113 110.429 28.3801 109.465 28.7661 108.454C29.1519 107.444 29.6115 106.193 29.7873 105.676C29.9631 105.16 30.4793 103.845 30.9343 102.755C31.3893 101.664 32.3993 99.0817 33.1786 97.0151C33.9581 94.9485 35.0522 92.0836 35.6102 90.6487C37.0736 86.8843 40.3177 78.4228 41.6918 74.7852C42.017 73.9241 42.9168 71.5759 43.6911 69.5669C44.4654 67.5579 45.4296 65.0217 45.8339 63.9309C46.238 62.8401 46.8565 61.2434 47.208 60.3827C47.5596 59.522 47.9211 58.5827 48.0115 58.2954C48.1017 58.0082 48.6484 56.5521 49.226 55.0598C52.088 47.6654 54.2448 42.0391 55.2612 39.316C56.164 36.8972 56.5184 36.1898 57.0624 35.7221C57.5066 35.3403 57.7646 35.23 57.8124 35.4018C57.8525 35.5461 58.3914 36.1956 59.0101 36.8454C59.6287 37.4952 60.3408 38.4722 60.5923 39.0168C60.8439 39.5612 61.1803 40.0086 61.3396 40.0107C61.4992 40.0128 61.6276 40.1662 61.6251 40.3514C61.6227 40.5367 61.8224 40.9509 62.0692 41.2723C62.316 41.5934 62.6493 42.0598 62.8101 42.3088C62.9708 42.5577 63.2168 42.763 63.3567 42.7649C63.4966 42.7667 63.7844 43.1769 63.9966 43.6763C64.2086 44.1759 64.6083 44.8656 64.8846 45.2091C65.1611 45.5527 65.7056 46.2273 66.0947 46.7079C66.4838 47.1886 66.8013 47.6401 66.8003 47.7114C66.7977 47.9076 68.4865 50.225 68.9687 50.6868C69.2014 50.9098 69.3904 51.2014 69.3886 51.335C69.3869 51.4686 69.6555 51.8528 69.9857 52.1889C70.3159 52.5249 70.584 52.9521 70.5815 53.1381C70.5745 53.6686 70.9976 53.9856 71.7261 53.9953C72.3722 54.0038 72.3957 53.975 72.4065 53.1609C72.4136 52.6229 72.2382 52.0147 71.9218 51.4803C71.6491 51.0198 71.4269 50.5695 71.4281 50.4797C71.4293 50.39 70.8457 49.6672 70.1312 48.8737C69.4167 48.0804 68.8332 47.3489 68.8345 47.2482C68.8359 47.1475 68.2972 46.4774 67.6375 45.7589C66.9778 45.0404 66.4393 44.3566 66.4408 44.2394C66.4439 44.0091 65.927 43.2455 64.8994 41.9621C64.5427 41.5168 64.2521 41.0663 64.2535 40.961C64.2549 40.8557 63.761 40.25 63.156 39.6153C62.5509 38.9806 62.0573 38.3545 62.059 38.2242C62.0608 38.094 61.882 37.814 61.6617 37.6024C61.4414 37.3907 61.263 37.081 61.2652 36.9144C61.2674 36.7479 61.0177 36.3579 60.7105 36.0479C59.9072 35.2377 59.0729 34.013 59.0777 33.6511C59.0846 33.1343 58.2012 32.4158 57.5601 32.4165C57.12 32.4171 56.762 32.6477 56.1875 33.3012ZM128.133 71.8535C127.852 72.0038 127.268 72.5054 126.834 72.9679C126.4 73.4304 125.936 73.8073 125.803 73.8055C125.669 73.8038 124.964 74.408 124.236 75.1484C123.508 75.8887 122.813 76.4931 122.692 76.4915C122.571 76.4899 122.177 76.796 121.815 77.1718C121.056 77.9608 120.956 78.7432 121.543 79.3078C121.821 79.5748 121.881 79.768 121.739 79.9404C121.596 80.1129 121.656 80.3061 121.934 80.573C122.154 80.7845 122.332 81.0649 122.33 81.196C122.329 81.3271 122.73 81.8542 123.222 82.3671C123.905 83.0795 124.063 83.3639 123.892 83.5717C123.722 83.7779 123.819 83.993 124.292 84.4623C124.635 84.8028 124.913 85.2174 124.911 85.384C124.909 85.5505 125.087 85.8603 125.308 86.0719C125.528 86.2836 125.706 86.5839 125.704 86.7391C125.702 86.9466 126.05 87.0259 127.019 87.0388C128.263 87.0553 128.337 87.029 128.343 86.5684C128.347 86.3001 128.124 85.856 127.849 85.5812C127.574 85.3065 127.35 84.9714 127.352 84.8364C127.354 84.7013 127.175 84.4174 126.955 84.2057C126.735 83.994 126.556 83.7128 126.558 83.5811C126.559 83.4494 126.201 82.9679 125.761 82.5115C125.32 82.055 124.962 81.5706 124.964 81.4349C124.965 81.2994 124.828 81.0664 124.659 80.9168C124.489 80.7675 124.379 80.4814 124.414 80.2813C124.448 80.0809 124.301 79.7104 124.086 79.4574C123.765 79.0808 123.74 78.9345 123.947 78.6462C124.086 78.453 124.302 78.0364 124.427 77.7209C124.598 77.2904 124.793 77.1488 125.208 77.1543C125.766 77.1618 126.479 76.5553 126.725 75.8633C126.796 75.6624 126.99 75.4997 127.154 75.5019C127.319 75.5041 127.59 75.3098 127.757 75.0701C127.958 74.7806 128.188 74.6785 128.441 74.7654C128.708 74.8568 129.026 74.6855 129.497 74.1958C130.352 73.3069 130.335 72.495 129.45 71.9443C128.739 71.5022 128.784 71.5051 128.133 71.8535ZM133.844 72.0902C133.285 72.6895 133.259 73.5128 133.783 74.0165C134.047 74.2701 134.18 74.668 134.173 75.1815C134.164 75.833 134.306 76.1015 135.034 76.8148C135.514 77.2844 136.101 77.7353 136.339 77.8172C136.578 77.8988 136.771 78.0864 136.769 78.2341C136.763 78.6756 137.38 79.8564 137.681 79.9806C137.835 80.0441 137.96 80.1849 137.959 80.2935C137.955 80.5337 136.903 81.4898 136.635 81.4955C136.358 81.5014 135.292 82.5694 135.288 82.8446C135.286 82.9727 134.934 83.4227 134.505 83.8447C133.943 84.3976 133.664 84.5475 133.507 84.3809C133.35 84.2141 133.196 84.2836 132.956 84.6291C132.772 84.8929 132.621 85.1747 132.62 85.2557C132.615 85.5857 133.675 86.7077 133.995 86.7119C134.184 86.7144 134.795 86.2505 135.352 85.681C135.909 85.1115 136.521 84.6476 136.711 84.6501C137.238 84.6571 138.319 83.645 138.333 83.132C138.35 82.4884 139.231 81.5415 139.694 81.6689C140.182 81.8036 140.586 80.9413 140.603 79.7299C140.613 78.963 140.553 78.8269 140.203 78.8223C139.976 78.8193 139.737 78.6508 139.671 78.4481C139.507 77.9399 138.387 76.7002 138.089 76.6962C137.954 76.6944 137.65 76.2891 137.413 75.7956C137.175 75.3022 136.742 74.6118 136.449 74.2618C135.797 73.4811 135.422 72.7836 135.427 72.363C135.43 72.1853 135.253 72.043 135.026 72.04C134.803 72.0371 134.622 71.9402 134.623 71.8249C134.628 71.4771 134.317 71.5829 133.844 72.0902ZM87.5783 74.3883C87.1766 74.7929 87.2582 76.1148 87.7118 76.5509C87.932 76.7626 88.1109 77.0366 88.1093 77.1596C88.1054 77.4528 90.3291 79.8375 90.61 79.8413C90.8559 79.8445 92.7123 81.7895 92.709 82.0403C92.7078 82.1303 92.4299 82.4386 92.0915 82.7253C91.753 83.0122 91.474 83.4062 91.4714 83.6013C91.4688 83.7964 91.2824 84.0895 91.0571 84.2529C90.8318 84.4163 90.6455 84.7062 90.6429 84.8971C90.6404 85.0882 90.1301 85.7165 89.5089 86.2935C88.3469 87.373 88.1195 87.9694 88.6535 88.5366C89.2704 89.1922 89.8422 88.8996 91.7861 86.9335C92.9463 85.7598 93.6857 84.8465 93.6892 84.5829C93.6924 84.3454 93.932 83.9269 94.2218 83.6528C95.411 82.5275 95.7151 80.6755 94.7913 80.1862C94.5305 80.048 93.9406 79.5423 93.4803 79.0625C93.02 78.5826 92.5262 78.1884 92.3828 78.1865C92.0789 78.1824 89.7644 75.6371 89.7615 75.3034C89.7603 75.1794 89.5509 74.8697 89.2963 74.6154C88.7879 74.1083 87.9643 73.9994 87.5783 74.3883ZM80.6634 76.611C79.7304 77.5573 78.9661 78.4268 78.9645 78.5435C78.963 78.6601 78.4026 79.3116 77.7195 79.9911C75.8938 81.8073 75.4895 82.7892 76.2617 83.5317C76.4819 83.7434 76.6607 84.0231 76.659 84.1529C76.6573 84.283 77.2042 84.9601 77.8743 85.6576C78.5445 86.3552 79.1509 87.0841 79.2217 87.2775C79.2928 87.4708 79.9664 88.3057 80.7187 89.1331C81.8787 90.4083 82.19 90.6386 82.7659 90.6463C83.4316 90.6551 84.0841 90.086 84.092 89.4897C84.0938 89.3567 83.0163 88.1126 81.6979 86.7246C80.3792 85.337 79.3013 84.037 79.3026 83.836C79.3036 83.6353 79.1237 83.3505 78.9025 83.2034C78.6814 83.0564 78.5018 82.8398 78.5033 82.7223C78.5049 82.6048 78.6902 82.3931 78.9152 82.252C79.1402 82.1108 79.3265 81.8272 79.3292 81.6214C79.3319 81.4156 79.7503 80.8358 80.259 80.333C80.7676 79.8302 81.1854 79.2968 81.1874 79.1478C81.1893 78.9987 81.3509 78.8679 81.5461 78.857C81.7414 78.846 82.4543 78.2364 83.1302 77.502C84.3363 76.192 84.3536 76.1563 84.0619 75.5984C83.8424 75.1788 83.5803 75.0117 83.062 74.9601C82.4216 74.8966 82.2091 75.0427 80.6634 76.611ZM29.5121 114.068C29.4406 114.184 30.0693 115.538 30.9092 117.076C33.1142 121.114 35.2688 125.113 36.2868 127.057C36.7735 127.987 37.243 128.843 37.3301 128.959C37.4172 129.076 38.1768 130.455 39.0185 132.024C39.86 133.592 41.3944 136.445 42.4282 138.363C43.4622 140.28 44.7065 142.61 45.1934 143.539C45.6806 144.469 46.1492 145.325 46.2349 145.441C46.4016 145.668 46.7842 146.377 48.1523 148.994C48.6265 149.901 49.2275 150.995 49.4877 151.424C49.7477 151.853 50.4903 153.203 51.1376 154.423C52.5313 157.049 55.6042 162.756 57.2253 165.728C58.4579 167.988 60.4936 171.752 62.1107 174.761C62.6569 175.778 63.2079 176.611 63.3348 176.612C63.4615 176.614 63.9392 175.956 64.396 175.152C64.8529 174.348 65.8418 172.638 66.5937 171.353C67.3455 170.069 68.1962 168.596 68.4844 168.08C68.7725 167.565 69.5505 166.206 70.2135 165.061C70.8763 163.916 71.7073 162.463 72.0598 161.831C72.7731 160.554 74.4901 157.588 76.5563 154.064C77.3069 152.784 78.2773 151.081 78.7126 150.279C79.148 149.477 79.6636 148.587 79.8584 148.301C80.0535 148.015 80.4965 147.266 80.8429 146.636C81.1894 146.006 82.4759 143.757 83.7018 141.639C84.9278 139.52 86.5166 136.757 87.2324 135.497C87.9485 134.237 90.8321 129.225 93.6408 124.358C96.4497 119.491 98.7514 115.344 98.7557 115.143C98.7632 114.794 96.9839 114.752 64.2028 114.316C41.0417 114.008 29.5991 113.926 29.5121 114.068ZM124 115.33C123.927 115.45 124.009 115.779 124.184 116.063C124.358 116.347 125.622 118.649 126.992 121.179C131.356 129.239 132.516 131.38 135.094 136.133C137.862 141.238 140.297 145.752 141.078 147.227C141.355 147.75 142.514 149.889 143.654 151.982C144.794 154.074 146.28 156.831 146.957 158.11C147.634 159.388 148.559 161.077 149.012 161.864C149.464 162.651 149.834 163.339 149.833 163.393C149.833 163.447 150.087 163.944 150.398 164.498C150.709 165.052 151.48 166.457 152.111 167.619C152.743 168.781 153.855 170.826 154.583 172.162C155.311 173.499 156.293 175.329 156.765 176.23C157.271 177.196 157.754 177.868 157.942 177.868C158.128 177.869 158.656 177.161 159.217 176.155C160.345 174.133 160.139 174.491 174.446 149.664C180.583 139.014 185.842 129.879 186.133 129.364C186.424 128.849 188.189 125.773 190.056 122.529C191.923 119.286 193.452 116.498 193.455 116.333C193.458 116.076 188.653 115.971 158.796 115.574C134.934 115.256 124.092 115.18 124 115.33Z" fill="black"/>
<path fill-rule="evenodd" clip-rule="evenodd" d="M124 115.33C123.927 115.45 124.009 115.779 124.184 116.063C124.358 116.347 125.622 118.649 126.992 121.179C131.356 129.239 132.516 131.38 135.094 136.133C137.862 141.238 140.297 145.752 141.078 147.227C141.355 147.75 142.514 149.889 143.654 151.982C144.794 154.074 146.28 156.831 146.957 158.11C147.634 159.388 148.559 161.077 149.012 161.864C149.464 162.651 149.834 163.339 149.833 163.393C149.833 163.447 150.087 163.944 150.398 164.498C150.709 165.052 151.48 166.457 152.111 167.619C152.743 168.781 153.855 170.826 154.583 172.162C155.311 173.499 156.293 175.329 156.765 176.23C157.271 177.196 157.753 177.868 157.941 177.868C158.128 177.869 158.656 177.161 159.217 176.155C160.345 174.134 160.139 174.491 174.446 149.664C180.583 139.014 185.842 129.879 186.133 129.364C186.424 128.849 188.189 125.773 190.056 122.53C191.923 119.286 193.452 116.498 193.455 116.333C193.458 116.076 188.653 115.971 158.796 115.574C134.934 115.256 124.092 115.181 124 115.33Z" fill="#FE0100"/>
<path fill-rule="evenodd" clip-rule="evenodd" d="M130.173 73.0358C130.13 73.7051 128.851 75.0106 128.467 74.7779C128.249 74.6458 128.246 74.6696 128.451 74.9046C128.834 75.3425 130.413 73.7137 130.293 73.0044C130.208 72.5015 130.208 72.5017 130.173 73.0358ZM135.639 73.0971C135.991 73.765 137.214 75.2746 137.217 75.0461C137.218 74.9519 136.949 74.6001 136.619 74.264C136.289 73.928 136.02 73.5407 136.022 73.4033C136.024 73.2661 135.876 73.022 135.692 72.8612C135.386 72.5926 135.382 72.6118 135.639 73.0971ZM80.5066 76.6124L78.866 78.3214L80.5612 76.6704C81.4936 75.7625 82.2566 74.9939 82.2571 74.9622C82.2591 74.8093 82.0301 75.0253 80.5066 76.6124ZM138.007 76.6326C138.497 76.824 139.61 78.0297 139.622 78.3836C139.631 78.6267 139.663 78.6384 139.746 78.43C139.885 78.0848 138.451 76.4849 138.018 76.5021C137.746 76.5127 137.745 76.5301 138.007 76.6326ZM83.0265 77.59L81.9021 78.7814L83.0832 77.6504C84.1806 76.5996 84.3589 76.4014 84.2084 76.3994C84.1768 76.399 83.6448 76.9347 83.0265 77.59ZM89.1977 78.721C89.8536 79.451 90.5302 80.0424 90.7013 80.0357C90.973 80.0248 90.974 80.0087 90.7093 79.9063C90.5428 79.842 89.8662 79.2504 89.2057 78.5917L88.0048 77.394L89.1977 78.721ZM123.076 82.3801C123.74 83.1331 123.872 83.3996 123.679 83.5944C123.542 83.7317 123.484 83.8448 123.548 83.8457C123.612 83.8465 123.767 83.724 123.891 83.5735C124.064 83.3631 123.898 83.0823 123.171 82.3576L122.226 81.4155L123.076 82.3801ZM90.6105 88.1172C90.2325 88.51 89.685 88.8661 89.394 88.9088L88.8647 88.9861L89.3807 89.0244C89.7397 89.051 90.1411 88.8106 90.7 88.2342C91.1417 87.7785 91.4569 87.4051 91.4003 87.4044C91.3438 87.4036 90.9884 87.7243 90.6105 88.1172ZM80.4474 89.042C81.1558 89.8014 81.7811 90.4234 81.8369 90.4241C81.8927 90.4249 81.3586 89.8041 80.6502 89.0447C79.9417 88.2852 79.3164 87.6633 79.2606 87.6625C79.2049 87.6618 79.7389 88.2825 80.4474 89.042ZM28.1247 110.339C28.1882 110.552 28.2396 110.765 28.2389 110.813C28.2383 110.861 44.9134 111.121 65.2945 111.39C85.6756 111.659 102.23 111.798 102.083 111.698C101.935 111.599 85.2961 111.297 65.1079 111.029C34.0652 110.615 28.3715 110.495 28.2055 110.247C28.0553 110.022 28.0364 110.044 28.1247 110.339ZM195.129 112.455C195.126 112.641 186.19 112.582 158.17 112.212C137.845 111.943 121.108 111.792 120.978 111.875C120.848 111.958 137.451 112.223 157.874 112.465C181.591 112.745 195.078 112.831 195.205 112.702C195.315 112.592 195.344 112.436 195.268 112.356C195.193 112.276 195.13 112.321 195.129 112.455ZM25.1733 113.189C25.1383 113.638 25.6648 114.69 26.0258 114.892C26.4354 115.122 26.441 115.113 26.1334 114.732C25.955 114.511 25.6683 114.045 25.4961 113.696C25.3239 113.348 25.1787 113.12 25.1733 113.189ZM29.5121 114.068C29.4406 114.184 30.0693 115.538 30.9092 117.076C33.1142 121.114 35.2688 125.113 36.2868 127.057C36.7735 127.987 37.243 128.842 37.3301 128.959C37.4172 129.076 38.1768 130.455 39.0185 132.024C39.86 133.592 41.3944 136.445 42.4282 138.363C43.4622 140.28 44.7065 142.61 45.1934 143.539C45.6806 144.469 46.1492 145.325 46.2349 145.441C46.4016 145.668 46.7842 146.377 48.1523 148.994C48.6265 149.901 49.2275 150.995 49.4877 151.424C49.7477 151.853 50.4903 153.203 51.1376 154.423C52.5313 157.049 55.6042 162.756 57.2253 165.728C58.4579 167.988 60.4936 171.752 62.1107 174.761C62.6569 175.778 63.2079 176.611 63.3348 176.612C63.4615 176.614 63.9392 175.956 64.396 175.152C64.8529 174.348 65.8418 172.638 66.5937 171.353C67.3455 170.069 68.1962 168.596 68.4844 168.08C68.7725 167.565 69.5505 166.206 70.2135 165.061C70.8763 163.916 71.7073 162.463 72.0598 161.831C72.7731 160.554 74.4901 157.588 76.5563 154.064C77.3069 152.784 78.2773 151.081 78.7126 150.279C79.148 149.477 79.6636 148.587 79.8584 148.301C80.0535 148.015 80.4964 147.266 80.8429 146.636C81.1894 146.006 82.4759 143.757 83.7018 141.639C84.9278 139.52 86.5166 136.757 87.2324 135.497C87.9485 134.237 90.8321 129.225 93.6408 124.358C96.4497 119.491 98.7514 115.344 98.7557 115.143C98.7632 114.794 96.9839 114.752 64.2028 114.316C41.0417 114.008 29.5991 113.926 29.5121 114.068Z" fill="#01CDFE"/>
<path fill-rule="evenodd" clip-rule="evenodd" d="M103.893 3.57841C80.7953 4.97568 59.4796 12.6802 41.8392 26.0076C37.5315 29.2621 34.5991 31.8353 30.5426 35.9202C13.7888 52.7913 4.04015 73.4915 1.84102 96.8655C1.48344 100.666 1.52578 110.905 1.91393 114.537C4.21077 136.027 13.0241 155.468 27.7363 171.498C46.5382 191.985 72.0408 204.216 101.175 206.719C105.546 207.095 116.911 207.058 120.865 206.655C135.937 205.12 149.03 201.413 161.555 195.136C172.515 189.642 181.467 183.179 189.952 174.635C204.58 159.904 214.022 141.933 217.504 122.194C218.612 115.915 218.921 112.067 218.891 104.939C218.863 98.3634 218.662 95.6548 217.811 90.3439C213.748 64.98 199.7 42.0524 178.363 25.9603C162.609 14.0782 144.277 6.81793 123.455 4.21404C120.553 3.8509 106.782 3.40347 103.893 3.57841ZM56.8275 32.4997C56.6768 32.6785 56.1779 33.2272 55.7189 33.7189C54.7347 34.7729 54.2007 35.8552 52.723 39.7913C52.1194 41.3987 51.3858 43.3243 51.0925 44.0704C50.4871 45.611 47.684 52.9451 46.2659 56.6988C45.7452 58.0765 44.8119 60.5187 44.1916 62.1258C41.518 69.0532 39.6885 73.8222 37.2252 80.2853C36.7003 81.663 35.8153 83.9642 35.2585 85.3992C33.7299 89.34 31.5908 94.9323 30.2285 98.5493C27.8646 104.826 25.795 110.144 25.3901 110.982C25.1648 111.448 24.9779 112.023 24.9747 112.261C24.9651 112.982 25.5422 114.517 25.9508 114.856C26.2822 115.132 27.7426 117.667 29.4831 120.987C29.7573 121.51 30.5777 123.032 31.3063 124.368C33.3615 128.138 34.7965 130.782 36.4107 133.772C37.2261 135.283 38.0735 136.852 38.2934 137.259C38.5131 137.666 39.0898 138.759 39.5745 139.688C40.0592 140.618 40.6102 141.617 40.7988 141.908C40.9876 142.199 41.4108 142.959 41.7396 143.598C42.4191 144.919 43.42 146.775 44.337 148.415C44.6811 149.03 44.9623 149.574 44.9616 149.622C44.961 149.671 45.4347 150.546 46.0145 151.568C46.5942 152.589 47.3441 153.963 47.6812 154.621C48.0184 155.279 48.9359 156.991 49.7203 158.425C52.4333 163.383 53.2233 164.839 53.7143 165.786C53.9856 166.309 54.6533 167.545 55.1985 168.533C55.7435 169.521 56.4133 170.757 56.6871 171.28C59.6206 176.884 62.197 181.363 62.6428 181.632C63.4743 182.136 64.3624 181.589 65.1717 180.074C65.5317 179.401 66.4662 177.753 67.2484 176.414C68.0306 175.074 69.3246 172.839 70.124 171.447C70.9233 170.055 72.2077 167.838 72.978 166.522C73.7484 165.205 74.3793 164.091 74.3799 164.045C74.3806 164 75.1104 162.721 76.0019 161.204C76.8933 159.688 78.401 157.088 79.3524 155.427C80.3037 153.767 81.7077 151.331 82.4724 150.014C83.2368 148.697 84.0998 147.198 84.39 146.683C84.8779 145.816 87.0201 142.104 89.7957 137.314L90.9419 135.336L111.191 135.56L131.441 135.784L135.894 144.043C138.343 148.585 140.607 152.79 140.924 153.386C141.241 153.983 143.948 158.987 146.94 164.508C149.932 170.029 152.755 175.259 153.215 176.13C156.946 183.207 157.482 183.836 158.781 182.655C159.167 182.304 179.166 147.86 183.046 140.862C183.396 140.232 184.296 138.665 185.047 137.38C186.927 134.163 188.564 131.322 191.561 126.08C192.968 123.617 194.37 121.207 194.677 120.723C194.983 120.239 195.234 119.799 195.234 119.745C195.235 119.691 195.849 118.59 196.598 117.297C197.908 115.035 197.955 114.907 197.847 113.893C197.785 113.314 197.395 111.891 196.981 110.732C194.16 102.834 193.587 101.219 192.904 99.2437C191.648 95.6087 189.965 90.8586 189.058 88.3881C188.59 87.1126 187.928 85.2629 187.586 84.2776C186.963 82.4759 185.367 77.9815 182.648 70.3655C180.932 65.56 176.72 53.7049 173.323 44.1221C172.008 40.4122 170.724 36.9885 170.471 36.5139C169.957 35.5513 168.535 34.0932 168.106 34.0875C167.952 34.0854 167.716 34.2187 167.58 34.3834C167.444 34.5482 166.999 34.7076 166.592 34.7374C166.054 34.7768 165.784 34.9254 165.609 35.2782C165.477 35.5458 165.265 35.8686 165.139 35.9958C165.013 36.1229 164.907 36.3967 164.905 36.6044C164.902 36.8284 164.751 36.98 164.534 36.9771C164.081 36.9711 162.855 38.2135 162.849 38.6851C162.846 38.8757 162.429 39.3813 161.921 39.8086C161.414 40.2359 160.996 40.738 160.994 40.9245C160.991 41.1108 160.299 41.9078 159.455 42.6953C158.612 43.4828 157.917 44.2418 157.912 44.3819C157.907 44.5219 157.718 44.7351 157.494 44.8557C157.269 44.9763 157.084 45.1865 157.082 45.3231C157.08 45.4599 156.685 45.9787 156.205 46.4764C155.724 46.9742 155.03 47.6931 154.662 48.0743C154.295 48.4552 153.993 48.8236 153.992 48.8924C153.991 48.9614 153.667 49.3036 153.272 49.6529C152.877 50.0022 152.552 50.423 152.55 50.5876C152.548 50.7523 152.386 50.9478 152.189 51.0217C151.993 51.0959 151.301 51.6961 150.651 52.3559C149.372 53.6531 149.13 54.4091 149.86 54.826C150.403 55.1362 151.682 54.897 151.687 54.4844C151.689 54.3097 152.686 53.15 153.902 51.907C155.117 50.6639 156.159 49.5216 156.217 49.3682C156.339 49.0442 158.187 46.9555 160.18 44.8891C160.944 44.0976 161.57 43.3427 161.572 43.2118C161.575 42.9584 162.99 41.572 163.241 41.5754C163.323 41.5765 163.591 41.1745 163.837 40.6823C164.083 40.19 164.484 39.6996 164.728 39.5927C164.972 39.4858 165.265 39.1861 165.379 38.927C165.493 38.6678 165.724 38.4082 165.894 38.35C166.063 38.2921 166.389 37.9442 166.618 37.5773C167.402 36.324 168.22 36.6808 168.902 38.5728C169.898 41.3393 171.44 45.6816 172.657 49.1483C173.39 51.235 174.733 55.0292 175.642 57.5798C176.551 60.1303 177.665 63.2606 178.118 64.5359C178.571 65.8112 179.451 68.2775 180.074 70.0165C180.696 71.7556 181.927 75.2179 182.808 77.7104C183.69 80.203 184.97 83.8075 185.652 85.7204C187.742 91.5773 191.909 103.302 193.407 107.537C193.94 109.044 194.546 110.741 194.753 111.307C194.961 111.873 195.129 112.418 195.128 112.518C195.126 112.62 178.898 112.484 158.211 112.209C118.378 111.68 120.469 111.651 119.889 112.737C119.516 113.435 119.64 114.006 120.525 115.664C121.64 117.751 124.3 122.68 127.328 128.267C128.65 130.708 129.791 132.871 129.863 133.074C129.987 133.424 129.035 133.43 111.607 133.198C95.8813 132.989 93.1783 132.91 92.9321 132.648C92.682 132.382 92.7257 132.205 93.2691 131.28C93.6126 130.695 93.8941 130.188 93.8946 130.153C93.895 130.118 94.3937 129.255 95.0024 128.236C95.6114 127.217 96.3946 125.868 96.7429 125.238C97.0913 124.608 98.6994 121.806 100.317 119.01C102.815 114.691 103.25 113.814 103.206 113.181C103.167 112.613 103.001 112.325 102.512 111.975L101.869 111.516L65.9177 111.025C46.1444 110.755 29.5681 110.522 29.0812 110.507C28.3345 110.485 28.2141 110.423 28.3115 110.115C28.6828 108.94 30.4724 104.139 31.4047 101.817C32.4294 99.2638 33.7292 95.9063 36.3331 89.0849C38.1681 84.2775 41.4309 75.7556 42.8861 71.9688C43.636 70.0172 44.8162 66.9175 45.5089 65.0805C46.2014 63.2435 47.1016 60.8953 47.5096 59.8622C47.9174 58.8292 48.6598 56.9037 49.159 55.5834C49.6582 54.2631 50.7921 51.3043 51.6789 49.0083C52.5655 46.7124 53.9982 42.9551 54.8623 40.6589C55.8724 37.975 56.6257 36.2804 56.9711 35.9141C57.5475 35.3033 57.8403 35.1964 57.835 35.5994C57.8304 35.944 58.8447 37.0404 59.1719 37.0448C59.3183 37.0467 59.4365 37.1752 59.4344 37.3305C59.4323 37.4857 59.5971 37.7726 59.8005 37.9683C60.004 38.1638 60.3392 38.7011 60.5452 39.162C60.7514 39.6232 61.0297 40.0028 61.1639 40.0061C61.2981 40.0091 61.5551 40.344 61.7348 40.7503C61.9146 41.1565 62.1428 41.49 62.2415 41.4913C62.3403 41.4926 62.4193 41.6325 62.4171 41.802C62.4148 41.9717 62.6898 42.328 63.0282 42.5939C63.3666 42.86 63.7863 43.4113 63.961 43.8189C64.1355 44.2268 64.8462 45.2428 65.5401 46.0772C66.2342 46.9113 66.8004 47.7029 66.7987 47.8361C66.7969 47.9693 67.0648 48.3836 67.3938 48.7566C67.7231 49.1298 67.9915 49.5345 67.9903 49.6561C67.9893 49.7776 68.3035 50.2016 68.6886 50.5982C69.0737 50.9948 69.3875 51.4246 69.3857 51.5534C69.384 51.6822 69.6528 52.0626 69.9829 52.3986C70.3131 52.7347 70.5818 53.1188 70.58 53.2525C70.5743 53.6776 71.3275 54.2361 71.8187 54.1706C72.2263 54.1165 72.3028 53.9721 72.3662 53.1384C72.4616 51.8809 71.8006 50.5598 70.2101 48.8295C69.5629 48.1254 69.0346 47.4548 69.0362 47.3392C69.0377 47.2236 68.4539 46.5131 67.7389 45.7603C67.0239 45.0075 66.4402 44.2854 66.442 44.1557C66.4437 44.0261 66.2649 43.7466 66.0446 43.5349C65.8243 43.3232 65.6455 43.0414 65.6473 42.9088C65.6491 42.7763 65.3354 42.3435 64.9503 41.9469C64.5651 41.5503 64.2518 41.0896 64.2541 40.9229C64.2563 40.7563 63.82 40.179 63.2847 39.6399C62.7493 39.1009 62.25 38.4469 62.1749 38.1861C62.0999 37.9254 61.9596 37.7112 61.8631 37.71C61.7666 37.7087 61.6273 37.5016 61.5538 37.2497C61.4801 36.9979 61.0492 36.355 60.5957 35.8209C59.6702 34.7305 59.3612 34.252 59.0678 33.4544C58.7446 32.577 57.2857 31.9551 56.8275 32.4997ZM127.25 72.566C126.632 73.1347 126.045 73.599 125.946 73.5977C125.847 73.5963 125.17 74.201 124.442 74.9413C123.713 75.6817 123.022 76.2861 122.906 76.2846C122.79 76.283 122.35 76.5839 121.927 76.9534C121.301 77.5006 121.157 77.7666 121.15 78.3892C121.144 78.8794 121.251 79.1989 121.448 79.2802C121.655 79.3653 121.715 79.5661 121.631 79.8912C121.546 80.2245 121.635 80.4986 121.919 80.7713C122.145 80.989 122.329 81.2751 122.327 81.4068C122.326 81.5385 122.684 82.0197 123.124 82.4762C123.638 83.009 123.853 83.3773 123.726 83.5057C123.598 83.6339 123.757 83.9922 124.169 84.5071C125.177 85.7671 125.707 86.5459 125.704 86.7647C125.7 87.0284 126.838 87.2237 127.677 87.1033C128.195 87.0292 128.339 86.9076 128.343 86.5405C128.347 86.2831 128.169 85.8992 127.949 85.6875C127.729 85.4758 127.551 85.1667 127.553 85.001C127.558 84.6228 126.91 83.6863 125.812 82.4817C125.344 81.9697 124.964 81.416 124.966 81.2514C124.968 81.0869 124.88 80.8927 124.769 80.8199C124.658 80.7471 124.571 80.4869 124.574 80.2414C124.577 79.9962 124.384 79.5743 124.145 79.3041L123.711 78.8128L124.158 78.3333C124.404 78.0695 124.607 77.7418 124.609 77.605C124.611 77.468 124.827 77.3591 125.089 77.3626C125.624 77.3697 126.857 76.2918 126.864 75.8108C126.866 75.6388 126.991 75.4997 127.141 75.5017C127.291 75.5037 127.581 75.3192 127.785 75.0915C128.075 74.7685 128.219 74.7316 128.436 74.9237C128.658 75.1191 128.883 75.005 129.528 74.3704C129.998 73.9081 130.344 73.3723 130.347 73.0998C130.354 72.5922 129.244 71.5436 128.692 71.5362C128.517 71.5339 127.867 71.9973 127.25 72.566ZM133.655 72.2238C133.055 72.989 133.061 73.502 133.676 74.116C134.044 74.4826 134.139 74.7436 134.042 75.1197C133.935 75.536 134.105 75.8364 134.981 76.7781C135.568 77.4104 136.145 77.9292 136.262 77.9307C136.379 77.9323 136.636 78.3341 136.834 78.8239C137.031 79.3134 137.371 79.8475 137.59 80.0105C137.984 80.3037 137.983 80.3115 137.529 80.7989C137.277 81.0695 136.888 81.348 136.665 81.4178C136.217 81.5585 135.309 82.5132 135.294 82.8593C135.275 83.3058 133.925 84.4207 133.577 84.2772C133.108 84.0838 132.629 84.5394 132.62 85.1869C132.613 85.7306 133.494 86.9151 133.91 86.9206C134.032 86.9222 134.635 86.411 135.249 85.7845C135.873 85.1481 136.548 84.6475 136.778 84.65C137.36 84.6564 138.513 83.5202 138.401 83.0507C138.292 82.5956 139.448 81.3812 139.653 81.7349C139.869 82.1074 140.167 82.001 140.173 81.5492C140.176 81.3185 140.27 81.1309 140.381 81.1324C140.493 81.1339 140.591 80.6159 140.599 79.9814C140.613 78.9677 140.565 78.8271 140.209 78.8224C139.954 78.819 139.805 78.6771 139.808 78.4401C139.815 77.9652 138.413 76.4908 137.95 76.4846C137.739 76.4818 137.606 76.3162 137.609 76.0605C137.612 75.8297 137.524 75.6397 137.412 75.6383C137.3 75.6368 137.211 75.4755 137.214 75.28C137.217 75.0843 136.982 74.6625 136.694 74.3423C136.166 73.7575 135.726 73.0538 135.52 72.4662C135.422 72.1848 134.521 71.5951 134.231 71.6214C134.169 71.6271 133.91 71.8981 133.655 72.2238ZM87.5685 74.3732C87.0676 75.1789 87.0865 75.9736 87.62 76.5405C87.8898 76.8271 88.1089 77.1868 88.1069 77.34C88.1023 77.6861 90.3249 80.0473 90.6595 80.0517C90.7941 80.0535 91.3128 80.5016 91.8122 81.0476L92.7204 82.0401L92.0976 82.6872C91.7552 83.0431 91.4736 83.4333 91.472 83.5541C91.4704 83.675 91.2843 83.9423 91.0585 84.148C90.8327 84.3538 90.6465 84.6288 90.6448 84.7591C90.643 84.8894 90.1329 85.5021 89.5112 86.1205C88.7107 86.9167 88.3787 87.406 88.3735 87.7965C88.3651 88.4285 88.9166 89.051 89.4882 89.0548C90.0934 89.0589 93.6794 85.3235 93.6879 84.6802C93.692 84.3723 93.9488 83.9116 94.3112 83.5619C94.6502 83.2347 94.9292 82.8432 94.9312 82.6917C94.9332 82.5403 95.0261 82.4175 95.1377 82.419C95.2492 82.4205 95.3466 81.9604 95.3541 81.3968C95.3667 80.447 95.3197 80.3474 94.713 80.0385C94.3528 79.8549 93.7483 79.3642 93.3695 78.9477C92.9905 78.5313 92.587 78.1892 92.4728 78.1877C92.2034 78.1841 89.9542 75.8219 89.9502 75.5382C89.9486 75.4192 89.6814 75.0116 89.3567 74.6322C88.6735 73.8343 87.9675 73.732 87.5685 74.3732ZM80.5586 76.5129C79.6849 77.3981 78.9687 78.2272 78.967 78.3553C78.9653 78.4833 78.3629 79.176 77.6283 79.8944C76.8937 80.6128 76.2909 81.3307 76.2888 81.4897C76.2867 81.6487 76.1462 81.9185 75.9766 82.0893C75.5388 82.5302 75.587 82.9019 76.1605 83.5113C76.4355 83.8034 76.6589 84.1601 76.657 84.304C76.6551 84.4476 77.2388 85.166 77.9541 85.9001C78.6693 86.6343 79.2529 87.3572 79.2509 87.5068C79.249 87.6563 79.8571 88.4214 80.6024 89.2071C81.8054 90.4753 82.0454 90.6367 82.7411 90.646C83.5834 90.6572 84.064 90.2498 84.0853 89.5066C84.0929 89.2407 83.2072 88.1409 81.6975 86.5411C80.3775 85.1425 79.299 83.8933 79.3007 83.7653C79.3024 83.6372 79.1222 83.3576 78.9001 83.1442L78.4966 82.7562L78.9112 82.3117C79.1393 82.0672 79.3272 81.7747 79.3287 81.6621C79.3302 81.5492 79.7475 81.0456 80.2562 80.5428C80.7648 80.04 81.1826 79.5066 81.1846 79.3576C81.1866 79.2085 81.3048 79.0882 81.4475 79.0901C81.8772 79.0958 84.2643 76.5336 84.2706 76.06C84.2789 75.4307 83.6488 74.9234 82.8455 74.9128C82.2436 74.9048 81.9271 75.1261 80.5586 76.5129Z" fill="#FBFBFB"/>
</g>
<defs>
<clipPath id="clip0_4_175">
<rect width="218" height="206" fill="white" transform="translate(2.73871) rotate(0.76175)"/>
</clipPath>
</defs>
</svg>
